<svg width="28" height="29" viewBox="0 0 28 29" fill="none" xmlns="http://www.w3.org/2000/svg">
<mask id="mask0_560_7" style="mask-type:luminance" maskUnits="userSpaceOnUse" x="0" y="0" width="28" height="29">
<path d="M-1.90735e-06 0.059082H28V28.0591H-1.90735e-06V0.059082Z" fill="white"/>
</mask>
<g mask="url(#mask0_560_7)">
<path d="M27.4723 12.8127L15.2469 0.588189C15.0795 0.420612 14.8808 0.287669 14.662 0.196963C14.4433 0.106258 14.2088 0.0595703 13.9719 0.0595703C13.7351 0.0595703 13.5006 0.106258 13.2818 0.196963C13.0631 0.287669 12.8643 0.420612 12.697 0.588189L10.158 3.12713L13.3777 6.34683C13.7562 6.21827 14.1632 6.1982 14.5525 6.28889C14.9419 6.37957 15.2981 6.5774 15.5809 6.85998C15.8651 7.14466 16.0637 7.50351 16.1538 7.89559C16.2439 8.28767 16.2221 8.6972 16.0907 9.07744L19.1936 12.1807C19.5738 12.0486 19.9836 12.0263 20.3758 12.1164C20.7681 12.2066 21.127 12.4054 21.4114 12.6902C21.6107 12.8894 21.7687 13.1259 21.8765 13.3862C21.9844 13.6465 22.0399 13.9255 22.0399 14.2073C22.0399 14.489 21.9844 14.768 21.8765 15.0283C21.7687 15.2886 21.6107 15.5251 21.4114 15.7243C21.0088 16.1267 20.4629 16.3528 19.8937 16.3528C19.3245 16.3528 18.7786 16.1267 18.3761 15.7243C18.0764 15.4249 17.8722 15.0434 17.7891 14.628C17.706 14.2126 17.7478 13.7819 17.9092 13.3902L15.0144 10.4962V18.1134C15.3199 18.2643 15.5851 18.4859 15.788 18.7597C15.9909 19.0335 16.1256 19.3518 16.181 19.688C16.2364 20.0243 16.2109 20.3689 16.1066 20.6933C16.0023 21.0178 15.8221 21.3127 15.5812 21.5537C15.382 21.7529 15.1454 21.911 14.8851 22.0188C14.6248 22.1266 14.3459 22.1821 14.0641 22.1821C13.7824 22.1821 13.5034 22.1266 13.2431 22.0188C12.9828 21.911 12.7463 21.7529 12.547 21.5537C12.3478 21.3545 12.1897 21.1179 12.0818 20.8576C11.9739 20.5973 11.9184 20.3183 11.9184 20.0365C11.9184 19.7547 11.9739 19.4757 12.0818 19.2153C12.1897 18.955 12.3478 18.7185 12.547 18.5193C12.748 18.3178 12.9871 18.1584 13.2503 18.0503V10.3631C12.9871 10.2556 12.748 10.0965 12.547 9.89532C12.2462 9.59404 12.0416 9.21014 11.9593 8.79237C11.8771 8.3746 11.9209 7.9418 12.0851 7.54896L8.91049 4.37436L0.528197 12.7554C0.360664 12.9229 0.227765 13.1217 0.137093 13.3406C0.0464215 13.5594 -0.000247478 13.794 -0.000247478 14.0309C-0.000247478 14.2677 0.0464215 14.5023 0.137093 14.7211C0.227765 14.94 0.360664 15.1388 0.528197 15.3063L12.754 27.5323C13.0922 27.8702 13.5508 28.0601 14.0289 28.0601C14.507 28.0601 14.9656 27.8702 15.3039 27.5323L27.4723 15.3636C27.8102 15.0251 27.9999 14.5664 27.9999 14.0881C27.9999 13.6099 27.8102 13.1512 27.4723 12.8127Z" fill="#100F0D"/>
</g>
</svg>
